# xmcd
#
# Track frame offsets:
#	183
#	12658
#	24680
#	39760
#	49790
#	59980
#	69990
#	81913
#	92795
#	105050
#	116325
#	125680
#	135810
#	149655
#	159605
#	171165
#
# Disc length: 2420 seconds
# Revision: 0
# Processed by: cddbd v1.5.2PL0 Copyright (c) Steve Scherf et al.
# Submitted via: dBpowerAMP V12.0
#
DISCID=d8097210
DTITLE=Elvis Presley - The Country Side of Elvis [Success]
DYEAR=1900
DGENRE=Pop/Rock
TTITLE0=Don't
TTITLE1=Blueberry Hill
TTITLE2=(There Will Be) Peace in the Valley (For Me)
TTITLE3=Treat Me Nice
TTITLE4=Poor Boy
TTITLE5=One-Sided Love Affair
TTITLE6=I Need You So
TTITLE7=Paralyzed
TTITLE8=Love Me
TTITLE9=Mystery Train
TTITLE10=I'm Gonna Sit Right Down and Cry (Over You)
TTITLE11=I Want to Be Free
TTITLE12=Lonesome Cowboy
TTITLE13=How Do You Think I Feel
TTITLE14=Have I Told You Lately That I Love You
TTITLE15=Loving You
EXTD=
EXTT0=
EXTT1=
EXTT2=
EXTT3=
EXTT4=
EXTT5=
EXTT6=
EXTT7=
EXTT8=
EXTT9=
EXTT10=
EXTT11=
EXTT12=
EXTT13=
EXTT14=
EXTT15=
PLAYORDER=
